<svg xmlns="http://www.w3.org/2000/svg" viewBox="0 0 198.41 139.1"><defs><style>.cls-1,.cls-2{fill:#fff;}.cls-1,.cls-2,.cls-3{stroke:#1d1d1b;stroke-miterlimit:10;}.cls-1,.cls-3{stroke-width:4.63px;}.cls-2{stroke-width:2.62px;}.cls-3{fill:#1d1d1b;}</style></defs><g id="Laag_2" data-name="Laag 2"><g id="Laag_1-2" data-name="Laag 1"><path class="cls-1" d="M113.41,33.35h0c-4.1,0-7.42-2.89-7.42-5.16V12.53c0-4.7,3.16-7.45,7.06-7.45h0c4.09,0,7.42,2.89,7.42,6.46V27.21C120.47,30.6,117.31,33.35,113.41,33.35Z"/><path class="cls-1" d="M96.31,48.63c11.62-12,25.34-9.45,25.34-9.45V32.12a16.59,16.59,0,0,1,5.64-12.46l2.23-1.95c2.68-2.35,6.87-1.82,6.87,3.11V49.71a6.89,6.89,0,0,1-2.31,5.15l-9.68,8.65A22.07,22.07,0,0,0,117,80v57.3"/><path class="cls-1" d="M62,26.09s.25,24.78.25,31A18.57,18.57,0,0,0,63,60.8a6.32,6.32,0,0,0,.22.61c.5,1.21,0,0,4.55,12.09A20.79,20.79,0,0,1,69,80.87V139.1"/><path class="cls-1" d="M98.76,36.06h0c-4.19,0-7.58-3.46-7.58-6.16V11.2c0-5.6,3.22-8.89,7.2-8.89h0A7.65,7.65,0,0,1,106,10V28.72A7.28,7.28,0,0,1,98.76,36.06Z"/><path class="cls-1" d="M82.59,34.67h0c-4.13,0-7.49-3-7.49-5.4V12.87c0-4.91,3.19-7.79,7.12-7.79h0c4.14,0,7.49,3,7.49,6.76v16.4C89.71,31.79,86.53,34.67,82.59,34.67Z"/><path class="cls-1" d="M68.4,33.35h0c-3.6,0-6.52-2.41-6.52-4.3V16a5.91,5.91,0,0,1,6.2-6.21h0c3.59,0,6.51,2.41,6.51,5.39V28.23C74.59,31.06,71.82,33.35,68.4,33.35Z"/><polyline class="cls-2" points="4.84 83.97 25.57 40.14 38.66 83.97"/><line class="cls-1" x1="62.02" y1="33.35" x2="31.81" y2="33.35"/><circle class="cls-3" cx="25.57" cy="33.9" r="6.24"/><path class="cls-3" d="M4.85,84s11.68,14.46,17.3,14.39S38.66,84,38.66,84Z"/><polyline class="cls-2" points="193.57 83.97 172.84 40.14 159.76 83.97"/><line class="cls-1" x1="136.39" y1="33.35" x2="166.6" y2="33.35"/><circle class="cls-3" cx="172.84" cy="33.9" r="6.24"/><path class="cls-3" d="M193.57,84s-11.68,14.46-17.31,14.39C170.79,98.3,159.76,84,159.76,84Z"/></g></g></svg>