<svg xmlns="http://www.w3.org/2000/svg" viewBox="0 0 74.49 74.29"><defs><style>.cls-1{fill:#fff;stroke:#1d1d1b;stroke-miterlimit:10;stroke-width:5.04px;}</style></defs><g id="Laag_2" data-name="Laag 2"><g id="Laag_1-2" data-name="Laag 1"><path class="cls-1" d="M41.77,57c-5.91-.42-3,1.37-7.16,4.92l-2.13,2.19c-3.11,2.65-.94,7.16,5.17,7.6,0,0,9.64-2.35,13.73-3.52,5.75-1.66,18.33-8.2,19.44-9.16,5.77-5-12.27-51-7.85-50.71"/><path class="cls-1" d="M47,30.38V49.83c0,2.81,3.55,6.41,7.93,6.41h0a7.59,7.59,0,0,0,7.53-7.63V29.16L63,8.36C61,6.39,55.74,8,50.63,7c-4-.79-7.83-4.45-10-4.48-4.23-.07-6,2.31-10,3.48C27,7,20.34,11.44,16.67,12.26c-2.54.57-8.55.7-10.43,2.5C3.94,17,3.1,23.82,2.64,27a70.91,70.91,0,0,0,0,7.71V50.9c0,2.34,3.11,5.34,7,5.34h0a6.49,6.49,0,0,0,6.61-6.36V33.66"/><path class="cls-1" d="M47.41,27.27V50.49c0,5-3.45,9.11-7.69,9.11h0c-4.47,0-8.09-4.29-8.09-7.65V28.73"/><path class="cls-1" d="M31.44,29.53V49.89a7.81,7.81,0,0,1-7.6,8h0c-4.42,0-8-3.77-8-6.71V30.81"/></g></g></svg>